<?xml version="1.0" encoding="UTF-8" standalone="no"?>
<!DOCTYPE svg PUBLIC "-//W3C//DTD SVG 1.1//EN" "http://www.w3.org/Graphics/SVG/1.1/DTD/svg11.dtd">
<svg width="100%" height="100%" viewBox="0 0 365 321" version="1.1" xmlns="http://www.w3.org/2000/svg" xmlns:xlink="http://www.w3.org/1999/xlink" xml:space="preserve" xmlns:serif="http://www.serif.com/" style="fill-rule:evenodd;clip-rule:evenodd;stroke-linejoin:round;stroke-miterlimit:2;">
    <g transform="matrix(1,0,0,1,-50.1011,-65.2692)">
        <g transform="matrix(0.184967,0,0,-0.184967,-112.67,573.457)">
            <g transform="matrix(5.40636,0,0,-5.40636,609.136,3100.31)">
                <path d="M302.027,253.278C305.356,259.752 307.206,266.041 307.206,271.22C307.206,283.428 300.821,313.524 294.533,319.628C292.591,324.02 287.275,330.326 285.61,333.471C282.096,340.129 271.877,337.808 248.201,340.213C229.889,342.247 203.252,343.301 190.859,339.046C185.586,338.507 176.634,337.038 173.674,330.934C171.64,326.495 169.478,319.42 168.524,317.477C165.684,311.697 157.012,287.497 155.902,273.255C155.163,264.561 155.902,260.492 159.232,253.278C161.636,248.284 164.226,244.215 164.966,244.215C165.706,244.215 172.549,245.694 179.948,247.359C200.295,251.983 256.34,251.613 277.611,246.619C286.304,244.585 294.073,243.105 295.183,243.29C296.108,243.475 299.252,247.914 302.027,253.278Z" style="fill:rgb(236,210,66);"/>
            </g>
        </g>
        <g transform="matrix(0.184967,0,0,-0.184967,-112.67,573.457)">
            <g transform="matrix(5.40636,0,0,-5.40636,609.136,3100.31)">
                <path d="M141.475,103.085C151.463,110.113 156.272,119.917 156.272,134.159C156.272,148.402 153.128,157.835 144.619,167.083C133.151,179.846 115.765,184.84 103.927,178.736C79.511,165.973 75.072,126.575 95.788,106.969C108.551,94.761 127.417,93.281 141.475,103.085Z" style="fill:rgb(249,137,65);"/>
            </g>
        </g>
        <g transform="matrix(0.184967,0,0,-0.184967,-112.67,573.457)">
            <g transform="matrix(5.40636,0,0,-5.40636,609.136,3100.31)">
                <path d="M336.246,98.275C348.268,102.715 359.921,118.992 361.956,133.974C365.47,158.945 344.014,185.765 323.298,182.436C292.593,177.441 274.282,141.558 288.154,113.258C294.628,99.94 319.968,92.172 336.246,98.275Z" style="fill:rgb(249,137,65);"/>
            </g>
        </g>
        <g transform="matrix(0.184967,0,0,-0.184967,-112.67,573.457)">
            <g transform="matrix(5.40636,0,0,-5.40636,609.136,3100.31)">
                <path d="M161.266,85.143C165.706,87.362 172.919,92.541 177.174,96.796C183.278,102.53 185.497,103.824 187.532,102.16C195.67,95.316 258.559,95.131 254.305,101.975C251.9,106.044 258.004,103.085 261.889,98.46C264.293,95.501 271.507,90.507 277.611,87.177C296.293,77.189 317.564,77.374 327.182,87.547L331.067,91.617L321.263,91.062C301.842,89.767 281.68,104.009 275.021,123.431C261.519,162.829 295.738,200.007 333.656,187.43L344.199,183.73L344.199,193.164C344.014,216.655 324.223,230.712 275.761,241.81C254.305,246.619 199,246.249 176.804,241.07C154.053,235.706 140.735,230.527 127.232,221.464C113.36,212.03 107.441,203.707 107.441,193.904C107.441,187.06 107.811,186.69 111.695,188.17C120.389,191.314 134.076,189.649 144.249,184.1C160.897,175.037 169.59,158.02 168.11,138.043C167,124.726 162.191,114.553 152.758,105.119C142.955,95.316 134.446,91.802 121.498,91.802L110.585,91.987L115.949,87.547C118.909,85.143 123.903,82.368 126.863,81.443C135.371,78.854 152.018,80.519 161.266,85.143Z" style="fill:rgb(93,176,56);"/>
            </g>
        </g>
        <g transform="matrix(0.184967,0,0,-0.184967,-112.67,573.457)">
            <g transform="matrix(5.40636,0,0,-5.40636,609.136,3100.31)">
                <path d="M395.435,317.277C403.019,320.421 403.759,325.6 396.545,325.6C393.585,325.6 384.707,324.306 376.568,322.826C359.367,319.866 355.112,321.716 366.21,327.45C374.534,331.704 377.308,335.774 373.979,339.103C371.574,341.508 336.246,328.005 337.355,324.86C337.725,323.751 342.719,321.161 348.268,318.941C354.002,316.722 360.476,313.762 362.511,312.283C366.025,309.878 367.875,309.878 377.863,312.098C384.152,313.577 392.106,315.797 395.435,317.277Z" style="fill:rgb(93,176,56);"/>
            </g>
        </g>
        <g transform="matrix(0.184967,0,0,-0.184967,-112.67,573.457)">
            <g transform="matrix(5.40636,0,0,-5.40636,609.136,3100.31)">
                <path d="M105.591,308.953C108.551,310.988 113.915,313.947 117.429,315.427C120.944,316.907 124.828,319.681 125.753,321.531C127.417,324.491 125.383,325.785 107.996,332.814C94.123,338.363 87.834,340.028 86.355,338.548C83.58,335.774 86.91,331.149 95.603,325.97L102.817,321.531L90.794,322.641C84.135,323.196 75.627,324.306 71.742,324.86C64.898,326.155 64.529,325.97 65.268,321.716C65.638,318.017 67.673,316.907 77.106,314.317C83.21,312.653 90.794,309.878 93.753,308.398C100.412,304.699 99.487,304.514 105.591,308.953Z" style="fill:rgb(93,176,56);"/>
            </g>
        </g>
        <g transform="matrix(0.184967,0,0,-0.184967,-112.67,573.457)">
            <g transform="matrix(5.40636,0,0,-5.40636,609.136,3100.31)">
                <path d="M112.62,251.983C110.4,261.602 111.88,284.168 115.58,297.855C117.059,303.404 117.984,308.398 117.429,308.768C115.949,310.433 101.892,298.965 97.638,292.676C88.204,278.434 89.869,265.116 102.817,252.168C112.99,241.995 115.025,241.995 112.62,251.983Z" style="fill:rgb(93,176,56);"/>
            </g>
        </g>
        <g transform="matrix(0.184967,0,0,-0.184967,-112.67,573.457)">
            <g transform="matrix(5.40636,0,0,-5.40636,609.136,3100.31)">
                <path d="M366.395,254.388C376.384,264.746 377.308,284.168 368.245,298.78C364.916,304.144 355.112,310.988 346.789,313.392C343.089,314.502 343.089,314.317 347.529,301.185C351.598,289.162 351.968,285.277 351.228,266.226L350.488,244.585L355.297,246.434C358.072,247.359 363.066,250.874 366.395,254.388Z" style="fill:rgb(93,176,56);"/>
            </g>
        </g>
        <g transform="matrix(0.184967,0,0,-0.184967,-112.67,573.457)">
            <g transform="matrix(5.40636,0,0,-5.40636,609.136,3100.31)">
                <path d="M342.35,240.33C346.974,254.758 347.344,279.358 343.274,295.081C341.61,301.185 337.725,311.543 334.396,318.202C329.587,328.005 327.367,330.594 322.373,332.074C315.899,333.924 315.344,337.808 321.633,337.253C325.702,336.698 345.864,355.935 346.049,360.189C346.049,363.704 343.274,363.149 337.355,358.34C324.408,347.796 325.333,347.611 326.812,360.744C327.922,370.177 327.552,372.212 325.517,371.472C324.038,370.917 321.263,366.293 319.229,361.114C317.194,355.75 314.974,351.496 314.419,351.496C313.865,351.496 311.83,356.305 309.98,362.039C305.911,375.357 303.876,378.131 300.547,375.357C298.697,373.877 298.512,370.177 299.252,361.299L300.362,349.276L287.969,357.785C276.316,365.738 270.582,367.773 267.808,365.183C265.588,362.964 269.102,358.709 276.871,354.085C285.565,348.906 296.108,337.993 296.108,334.109C296.108,332.629 299.807,320.421 304.431,306.919C313.68,278.989 314.604,269.555 309.055,254.943C307.021,249.579 305.356,244.03 305.356,242.735C305.356,241.44 308.87,238.851 313.31,236.816C317.564,234.966 324.408,231.267 328.477,228.862C336.985,223.498 337.17,223.498 342.35,240.33Z" style="fill:rgb(93,176,56);"/>
            </g>
        </g>
        <g transform="matrix(0.184967,0,0,-0.184967,-112.67,573.457)">
            <g transform="matrix(5.40636,0,0,-5.40636,609.136,3100.31)">
                <path d="M148.319,238.666L158.492,242.735L154.793,250.504C152.018,256.053 150.908,261.602 150.908,271.035C150.908,282.133 152.388,287.867 161.082,311.543C170.885,338.178 171.44,339.288 181.798,348.721C187.717,353.9 192.526,359.264 192.526,360.374C192.526,366.663 182.723,363.704 171.625,354.27C167.555,350.756 163.671,347.796 163.116,347.796C162.561,347.796 162.376,353.16 162.561,359.819C163.116,370.732 162.931,371.842 159.602,371.842C157.012,371.842 154.793,368.883 151.463,361.114L146.839,350.571L142.585,359.819C135.186,376.096 130.747,375.357 134.631,358.709C136.111,352.421 136.851,347.057 136.481,346.687C136.296,346.317 131.672,349.831 126.493,354.27C121.314,358.894 116.134,362.594 115.025,362.594C109.476,362.594 111.88,357.23 122.423,346.687C133.706,335.404 134.261,335.034 141.29,336.143C147.024,337.068 148.504,336.698 147.764,334.664C147.394,333.369 144.989,331.704 142.4,331.149C136.111,329.67 127.602,316.167 121.683,298.225C117.799,286.387 116.689,279.543 116.689,266.781C116.689,252.908 120.019,232.562 123.348,227.383C123.903,226.458 127.417,227.753 131.117,230.157C134.816,232.562 142.585,236.446 148.319,238.666Z" style="fill:rgb(93,176,56);"/>
            </g>
        </g>
        <g transform="matrix(0.184967,0,0,-0.184967,-112.67,573.457)">
            <g transform="matrix(5.40636,0,0,-5.40636,609.136,3100.31)">
                <path d="M302.908,293.499C300.401,301.808 297.362,309.599 295.431,313.52C293.508,317.423 288.654,327.362 285.49,330.955C280.419,336.716 271.877,337.808 248.201,340.213C229.889,342.247 200.257,338.248 191.701,336.894C184.514,335.757 178.41,334.965 175.329,328.058C173.475,323.902 165.45,305.992 160.294,290.736C166.249,294.841 180.085,302.777 200.66,305.048C228.805,308.155 243.975,309.069 255.854,307.058C265.924,305.354 292.147,297.347 302.908,293.499Z" style="fill:rgb(236,180,66);"/>
            </g>
        </g>
        <g transform="matrix(0.184967,0,0,-0.184967,-112.67,573.457)">
            <path d="M1278,2736C1225,2722 1193,2699 1097,2607C1004,2517 975,2454 975,2340C975,2240 995,2186 1058,2118C1084,2090 1101,2061 1105,2035C1114,1989 1133,1948 1166,1903C1179,1886 1190,1869 1190,1867C1190,1864 1168,1846 1141,1826C1055,1765 1010,1658 1031,1563C1036,1537 1042,1509 1043,1502C1044,1493 1022,1481 983,1469C915,1448 880,1414 880,1371C880,1326 905,1301 960,1294C993,1290 1010,1283 1010,1274C1010,1266 1019,1251 1030,1240C1058,1212 1119,1214 1180,1245C1207,1259 1232,1270 1236,1270C1240,1270 1224,1250 1201,1225C1177,1199 1160,1171 1160,1157C1160,1125 1190,1100 1229,1100C1251,1100 1268,1092 1284,1074C1310,1043 1351,1039 1380,1065C1397,1081 1399,1081 1419,1061C1431,1049 1451,1040 1465,1040C1493,1040 1540,1080 1540,1104C1540,1117 1544,1117 1577,1104C1618,1086 1671,1092 1691,1116C1697,1124 1703,1143 1702,1158L1701,1185L2007,1185L2002,1146C1998,1116 2001,1104 2015,1093C2040,1075 2104,1076 2140,1095C2169,1110 2170,1110 2170,1086C2170,1021 2255,991 2293,1042C2311,1066 2314,1067 2340,1054C2374,1037 2415,1049 2425,1079C2430,1096 2440,1100 2470,1100C2500,1100 2513,1105 2525,1124C2545,1154 2537,1175 2487,1228C2464,1251 2449,1270 2453,1270C2456,1270 2485,1259 2516,1245C2610,1204 2680,1215 2691,1273C2694,1289 2705,1292 2753,1293C2802,1295 2815,1299 2831,1319C2852,1345 2855,1381 2840,1411C2828,1433 2770,1464 2723,1474L2692,1481L2706,1515C2755,1632 2681,1802 2565,1840C2519,1855 2506,1897 2532,1949C2543,1971 2554,2018 2557,2052C2561,2092 2569,2122 2580,2135C2629,2190 2645,2242 2645,2340C2645,2429 2643,2439 2611,2497C2588,2541 2553,2581 2497,2631C2394,2722 2347,2744 2255,2744C2166,2745 2117,2730 2043,2681L1984,2641L1905,2652C1846,2660 1798,2660 1722,2651L1619,2639L1588,2665C1502,2738 1384,2765 1278,2736ZM1481,2640C1505,2628 1544,2600 1567,2577C1600,2546 1612,2539 1623,2548C1667,2585 2007,2586 1984,2549C1971,2527 2004,2543 2025,2568C2038,2584 2077,2611 2110,2629C2211,2683 2326,2682 2378,2627L2399,2605L2346,2608C2241,2615 2132,2538 2096,2433C2023,2220 2208,2019 2413,2087L2470,2107L2470,2056C2469,1929 2362,1853 2100,1793C1984,1767 1685,1769 1565,1797C1442,1826 1370,1854 1297,1903C1222,1954 1190,1999 1190,2052C1190,2089 1192,2091 1213,2083C1260,2066 1334,2075 1389,2105C1479,2154 1526,2246 1518,2354C1512,2426 1486,2481 1435,2532C1382,2585 1336,2604 1266,2604L1207,2603L1236,2627C1252,2640 1279,2655 1295,2660C1341,2674 1431,2665 1481,2640ZM1374,2543C1428,2505 1454,2452 1454,2375C1454,2298 1437,2247 1391,2197C1329,2128 1235,2101 1171,2134C1039,2203 1015,2416 1127,2522C1196,2588 1298,2596 1374,2543ZM2427,2569C2492,2545 2555,2457 2566,2376C2585,2241 2469,2096 2357,2114C2191,2141 2092,2335 2167,2488C2202,2560 2339,2602 2427,2569ZM2460,1801C2485,1723 2487,1590 2465,1505C2456,1472 2435,1416 2417,1380C2391,1327 2379,1313 2352,1305C2317,1295 2314,1274 2348,1277C2370,1280 2479,1176 2480,1153C2480,1134 2465,1137 2433,1163C2363,1220 2368,1221 2376,1150C2382,1099 2380,1088 2369,1092C2361,1095 2346,1120 2335,1148C2324,1177 2312,1200 2309,1200C2306,1200 2295,1174 2285,1143C2263,1071 2252,1056 2234,1071C2224,1079 2223,1099 2227,1147L2233,1212L2166,1166C2103,1123 2072,1112 2057,1126C2045,1138 2064,1161 2106,1186C2153,1214 2210,1273 2210,1294C2210,1302 2230,1368 2255,1441C2305,1592 2310,1643 2280,1722C2269,1751 2260,1781 2260,1788C2260,1795 2279,1809 2303,1820C2326,1830 2363,1850 2385,1863C2431,1892 2432,1892 2460,1801ZM1411,1810L1466,1788L1446,1746C1431,1716 1425,1686 1425,1635C1425,1575 1433,1544 1480,1416C1533,1272 1536,1266 1592,1215C1624,1187 1650,1158 1650,1152C1650,1118 1597,1134 1537,1185C1515,1204 1494,1220 1491,1220C1488,1220 1487,1191 1488,1155C1491,1096 1490,1090 1472,1090C1458,1090 1446,1106 1428,1148L1403,1205L1380,1155C1340,1067 1316,1071 1337,1161C1345,1195 1349,1224 1347,1226C1346,1228 1321,1209 1293,1185C1265,1160 1237,1140 1231,1140C1201,1140 1214,1169 1271,1226C1332,1287 1335,1289 1373,1283C1404,1278 1412,1280 1408,1291C1406,1298 1393,1307 1379,1310C1345,1318 1299,1391 1267,1488C1246,1552 1240,1589 1240,1658C1240,1733 1258,1843 1276,1871C1279,1876 1298,1869 1318,1856C1338,1843 1380,1822 1411,1810ZM2242,1731C2260,1696 2270,1662 2270,1634C2270,1568 2226.74,1446.73 2206.34,1405.31C2195.95,1384.21 2169.7,1330.48 2152.6,1311.05C2125.18,1279.91 2079,1274 1951,1261C1852,1250 1691.8,1271.62 1645.54,1278.94C1606.68,1285.09 1573.69,1289.37 1557.03,1326.71C1542.5,1359.29 1457.83,1548.17 1452,1623C1448,1670 1452,1692 1470,1731C1483,1758 1497,1780 1501,1780C1505,1780 1542,1772 1582,1763C1692,1738 1995,1740 2110,1767C2157,1778 2199,1786 2205,1785C2210,1784 2227,1760 2242,1731ZM1218,1738C1206,1686 1214,1564 1234,1490C1242,1460 1247,1433 1244,1431C1236,1422 1160,1484 1137,1518C1086,1595 1095,1667 1165,1737C1220,1792 1231,1792 1218,1738ZM2590,1725C2644,1669 2649,1564 2600,1485C2582,1456 2529,1419 2484,1406C2464,1400 2464,1401 2488,1472C2510,1537 2512,1558 2508,1661L2504,1778L2530,1768C2545,1763 2572,1744 2590,1725ZM1180,1430C1196,1419 1225,1403 1244,1395C1263,1387 1284,1372 1289,1362C1298,1346 1287,1339 1193,1301C1118,1271 1084,1262 1076,1270C1061,1285 1079,1310 1126,1338L1165,1362L1100,1356C1064,1353 1018,1347 997,1344C960,1337 958,1338 962,1361C964,1381 975,1387 1026,1401C1059,1410 1100,1425 1116,1433C1152,1453 1147,1454 1180,1430ZM2747,1385C2788,1368 2792,1340 2753,1340C2737,1340 2689,1347 2645,1355C2552,1371 2529,1361 2589,1330C2634,1307 2649,1285 2631,1267C2618,1254 2427,1327 2433,1344C2435,1350 2462,1364 2492,1376C2523,1388 2558,1404 2569,1412C2588,1425 2598,1425 2652,1413C2686,1405 2729,1393 2747,1385Z" style="fill-rule:nonzero;"/>
        </g>
        <g transform="matrix(0.184967,0,0,-0.184967,-112.67,573.457)">
            <path d="M1660,2232C1660,2227 1674,2214 1690,2202C1718,2181 1720,2181 1720,2198C1720,2208 1715,2221 1708,2228C1694,2242 1660,2244 1660,2232Z" style="fill-rule:nonzero;"/>
        </g>
        <g transform="matrix(0.184967,0,0,-0.184967,-112.67,573.457)">
            <path d="M1903,2228C1890,2222 1880,2209 1880,2199C1880,2181 1881,2181 1915,2198C1947,2214 1956,2231 1934,2236C1929,2237 1915,2234 1903,2228Z" style="fill-rule:nonzero;"/>
        </g>
        <g transform="matrix(0.184967,0,0,-0.184967,-112.67,573.457)">
            <path d="M2387,1985C2372,1971 2334,1952 2302,1943C2252,1927 2199,1925 1845,1925C1494,1925 1438,1927 1389,1942C1358,1952 1322,1969 1307,1980C1255,2021 1239,1989 1291,1946C1358,1889 1395,1885 1850,1885C2255,1885 2266,1886 2325,1907C2384,1930 2446,1982 2435,2000C2426,2015 2418,2012 2387,1985Z" style="fill-rule:nonzero;"/>
        </g>
        <g transform="matrix(0.184967,0,0,-0.184967,-112.67,573.457)">
            <path d="M1198,2457C1164,2430 1130,2356 1130,2310C1130,2257 1163,2194 1201,2175C1265,2141 1352,2176 1389,2249C1430,2328 1423,2398 1370,2448L1347,2469L1317,2444C1280,2413 1256,2416 1252,2453C1248,2486 1270.89,2514.88 1198,2457Z" style="fill-rule:nonzero;"/>
        </g>
        <g transform="matrix(0.184967,0,0,-0.184967,-112.67,573.457)">
            <g transform="matrix(3.47777,-3.71301,-4.77562,-4.47306,757.64,4156.69)">
                <ellipse cx="314.273" cy="117.31" rx="9.824" ry="10.395" style="fill:white;"/>
            </g>
        </g>
        <g transform="matrix(0.184967,0,0,-0.184967,-112.67,573.457)">
            <path d="M2347.37,2458.79C2348.58,2415.81 2322,2411 2281,2446L2249,2473L2224,2449C2149,2379 2189,2227 2297,2171C2309,2165 2337,2160 2359,2160C2392,2160 2408,2167 2438,2194C2474,2228 2482.21,2244.42 2497.26,2310.22C2510.39,2400.36 2440.75,2445.16 2383.02,2489.69C2306,2523.24 2345.79,2514.97 2347.37,2458.79Z" style="fill-rule:nonzero;"/>
        </g>
        <g transform="matrix(0.184967,0,0,-0.184967,-112.67,573.457)">
            <g transform="matrix(3.85867,3.31541,4.26423,-4.96297,591.21,2013.28)">
                <ellipse cx="314.273" cy="117.31" rx="9.824" ry="10.395" style="fill:white;"/>
            </g>
        </g>
    </g>
</svg>
